<?xml version="1.0" encoding="utf-8"?>
<!-- Generator: Adobe Illustrator 17.1.0, SVG Export Plug-In . SVG Version: 6.00 Build 0)  -->
<!DOCTYPE svg PUBLIC "-//W3C//DTD SVG 1.1//EN" "http://www.w3.org/Graphics/SVG/1.1/DTD/svg11.dtd">
<svg version="1.1" id="airbnb_x5F_horizontal_x5F_lockup_x5F_logo_x5F_Rausch_x5F_RGB"
	 xmlns="http://www.w3.org/2000/svg" xmlns:xlink="http://www.w3.org/1999/xlink" x="0px" y="0px" viewBox="0 0 706.8 317"
	 enable-background="new 0 0 706.8 317" xml:space="preserve">
<rect fill="none" width="706.8" height="317"/>
<path fill="#FF5A5F" d="M369.4,114.4c0,6.3-5.1,11.4-11.4,11.4c-6.3,0-11.4-5.1-11.4-11.4S351.6,103,358,103
	C364.3,103,369.4,108.1,369.4,114.4z M322,137.5c0,1.1,0,2.9,0,2.9s-5.5-7.1-17.2-7.1c-19.3,0-34.2,14.7-34.2,35
	c0,20.1,14.9,35,34.2,35c11.8,0,17.2-7.2,17.2-7.2v3c0,1.4,1.1,2.5,2.5,2.5h14.4V135c0,0-13,0-14.4,0C323,135,322,136.2,322,137.5z
	 M322,180c-2.7,3.8-8,7.2-14.4,7.2c-11.3,0-20-7.1-20-19.1c0-12,8.7-19.1,20-19.1c6.2,0,11.8,3.6,14.4,7.2V180z M349.4,135h16.9
	v66.5h-16.9V135z M602.7,133.3c-11.7,0-17.2,7.1-17.2,7.1V103h-16.9v98.5c0,0,13,0,14.4,0c1.5,0,2.5-1.2,2.5-2.5v-3l0,0
	c0,0,5.4,7.2,17.2,7.2c19.3,0,34.2-14.8,34.2-35C636.8,148.1,621.9,133.3,602.7,133.3z M599.9,187.2c-6.5,0-11.7-3.3-14.4-7.2v-23.8
	c2.6-3.6,8.3-7.2,14.4-7.2c11.3,0,20,7.1,20,19.1C619.9,180.1,611.2,187.2,599.9,187.2z M559.8,162v39.5h-16.9V164
	c0-11-3.5-15.3-13.1-15.3c-5.1,0-10.5,2.7-13.7,6.6v46.3h-17V135l13.4,0c1.5,0,2.5,1.2,2.5,2.5v2.9c5-5.1,11.5-7.1,18-7.1
	c7.4,0,13.6,2.2,18.5,6.3C557.5,144.6,559.8,150.9,559.8,162z M457.9,133.3c-11.7,0-17.2,7.1-17.2,7.1V103h-16.9v98.5
	c0,0,13,0,14.4,0c1.5,0,2.5-1.2,2.5-2.5v-3l0,0c0,0,5.4,7.2,17.2,7.2c19.3,0,34.2-14.8,34.2-35C492.1,148.1,477.1,133.3,457.9,133.3
	z M455.1,187.2c-6.5,0-11.7-3.3-14.4-7.2v-23.8c2.6-3.6,8.3-7.2,14.4-7.2c11.3,0,20,7.1,20,19.1
	C475.1,180.1,466.4,187.2,455.1,187.2z M409,133.3c5.2,0,7.7,0.8,7.7,0.8v15.7c0,0-14.1-4.7-23,5.3v46.4h-17V135c0,0,13,0,14.4,0
	c1.5,0,2.5,1.2,2.5,2.5v2.9C396.8,136.6,403.7,133.3,409,133.3z M232.9,195.4c-0.8-2.2-1.7-4.4-2.6-6.4c-1.4-3.1-2.8-6.1-4.1-9.1
	l-0.1-0.2c-12.2-26.5-25.3-53.4-39-79.9l-0.6-1.1c-1.4-2.7-2.8-5.5-4.3-8.3c-1.7-3.2-3.6-6.6-6.3-9.8c-5.8-6.8-13.9-10.6-22.6-10.6
	c-8.8,0-16.8,3.8-22.6,10.6c-2.7,3.2-4.6,6.6-6.3,9.8c-1.5,2.8-2.9,5.6-4.3,8.3l-0.5,1c-13.6,26.5-26.8,53.4-39,79.9l-0.2,0.4
	c-1.3,2.9-2.7,5.9-4.1,9c-0.9,2-1.8,4.1-2.6,6.4c-2.3,6.5-3,12.7-2.1,19c1.9,13.2,10.7,24.4,23,29.4c4.6,1.9,9.4,2.8,14.4,2.8
	c1.5,0,3.1-0.1,4.6-0.3c5.9-0.7,11.9-2.7,17.7-6c7.2-4,14.2-9.9,21.9-18.4c7.7,8.4,14.8,14.3,21.9,18.4c5.9,3.3,11.8,5.3,17.7,6
	c1.5,0.2,3.1,0.3,4.6,0.3c5,0,9.9-0.9,14.4-2.8c12.3-5,21.1-16.3,23-29.4C235.9,208.2,235.2,202,232.9,195.4z M153.2,204.6
	c-9.6-12.1-15.7-23.4-17.8-32.9c-0.9-4-1.1-7.6-0.6-10.8c0.4-2.8,1.4-5.3,2.8-7.4c3.3-4.8,9.1-7.7,15.6-7.7c6.5,0,12.3,2.9,15.6,7.7
	c1.5,2.1,2.4,4.6,2.8,7.4c0.5,3.2,0.3,6.9-0.6,10.8C168.9,181.2,162.7,192.5,153.2,204.6z M223.8,212.9c-1.3,9.2-7.5,17.1-16.1,20.6
	c-4.2,1.7-8.8,2.3-13.5,1.8c-4.5-0.5-8.9-2-13.5-4.6c-6.4-3.6-12.8-9.1-20.1-17.2c11.6-14.3,18.8-27.4,21.4-39.1
	c1.2-5.4,1.5-10.4,0.8-15.1c-0.7-4.5-2.3-8.5-4.7-12.1c-5.4-7.9-14.7-12.6-24.9-12.6c-10.2,0-19.5,4.7-24.9,12.6
	c-2.4,3.5-4,7.6-4.7,12.1c-0.7,4.6-0.5,9.7,0.8,15.1c2.7,11.7,9.9,24.9,21.4,39.2c-7.3,8.1-13.7,13.6-20.1,17.2
	c-4.6,2.6-9,4.1-13.5,4.6c-4.7,0.5-9.3-0.1-13.5-1.8c-8.6-3.5-14.8-11.4-16.1-20.6c-0.6-4.5-0.1-8.8,1.6-13.7
	c0.6-1.8,1.4-3.5,2.3-5.6c1.3-2.9,2.7-5.9,4-8.8l0.2-0.4c12.2-26.4,25.2-53.1,38.8-79.4l0.5-1c1.4-2.7,2.8-5.5,4.3-8.1
	c1.5-2.8,3-5.5,5-7.8c3.7-4.3,8.6-6.6,14.1-6.6c5.5,0,10.4,2.3,14.1,6.6c2,2.3,3.5,5,5,7.8c1.4,2.7,2.8,5.4,4.2,8.1l0.6,1.1
	c13.6,26.3,26.6,53.1,38.8,79.4l0.1,0.2c1.4,2.9,2.7,6,4.1,8.9c0.9,2.1,1.7,3.8,2.3,5.6C223.9,204,224.4,208.4,223.8,212.9z"/>
</svg>
